<svg width="512" height="512" viewBox="0 0 512 512" fill="none" xmlns="http://www.w3.org/2000/svg">
<rect width="512" height="512" rx="256" fill="white"/>
<path d="M219.112 372.894C201.597 383.006 184.103 375.358 176.014 361.346C163.475 339.627 172.495 314.803 156.07 276.646C153.535 270.637 148.522 271.662 146.341 277.592C131.665 316.891 138.896 340.74 126.748 361.766C118.883 375.648 101.556 382.849 83.9537 373.395C66.6479 362.836 64.0545 343.783 71.9197 329.901C85.0645 307.366 112.041 303.934 135.774 270.615C140.165 265.278 137.738 261.074 130.92 262.208C90.1989 266.102 73.7389 287.749 47.6505 287.865C31.6956 287.736 16.4916 275.963 16 255.696C16.6135 235.725 31.5136 224.32 47.4685 224.45C73.5569 224.334 90.0034 244.73 131.267 249.865C137.493 250.941 139.782 246.817 135.846 241.616C111.013 208.313 85.0043 203.713 72.4653 181.995C64.3755 167.983 66.4985 149.009 84.0133 138.896C101.528 128.784 119.022 136.433 127.111 150.445C139.65 172.163 130.63 196.987 147.055 235.145C149.59 241.154 154.307 241.233 156.488 235.303C172.673 197.001 163.232 172.56 176.377 150.025C184.242 136.142 201.569 128.941 219.171 138.395C236.477 148.954 239.071 168.008 231.205 181.89C218.061 204.425 191.084 207.856 167.351 241.175C162.96 246.513 165.387 250.716 172.205 249.582C212.926 245.688 229.386 224.041 255.475 223.925C271.429 224.055 286.633 235.827 287.125 256.094C286.512 276.065 271.612 287.47 255.657 287.34C231.374 287.348 214.335 269.162 172.964 262.222C166.738 261.146 163.343 264.974 167.279 270.174C192.112 303.477 218.121 308.078 230.66 329.796C238.75 343.808 236.627 362.782 219.112 372.894Z" fill="black"/>
<path d="M427.987 372.787C410.472 382.899 392.978 375.251 384.889 361.239C372.35 339.521 381.37 314.696 364.945 276.539C362.41 270.53 357.397 271.555 355.216 277.485C340.54 316.784 347.771 340.633 335.623 361.659C327.758 375.541 310.431 382.743 292.829 373.288C275.523 362.729 272.929 343.676 280.795 329.794C293.939 307.259 320.916 303.827 344.649 270.508C349.04 265.171 346.613 260.967 339.795 262.101C299.074 265.995 282.614 287.642 256.525 287.758C240.571 287.629 225.367 275.856 224.875 255.589C225.488 235.618 240.389 224.213 256.343 224.343C282.432 224.227 298.878 244.623 340.142 249.758C346.368 250.834 348.657 246.71 344.721 241.509C319.888 208.206 293.879 203.606 281.34 181.888C273.25 167.876 275.373 148.902 292.888 138.79C310.403 128.677 327.897 136.326 335.986 150.338C348.525 172.056 339.505 196.881 355.93 235.038C358.465 241.047 363.182 241.126 365.363 235.196C381.548 196.894 372.107 172.453 385.252 149.918C393.117 136.035 410.444 128.834 428.046 138.288C445.352 148.847 447.945 167.901 440.08 181.783C426.935 204.318 399.959 207.749 376.226 241.068C371.835 246.406 374.262 250.609 381.08 249.475C421.801 245.581 438.261 223.934 464.349 223.818C480.304 223.948 495.508 235.721 496 255.987C495.387 275.958 480.486 287.363 464.531 287.233C440.249 287.241 423.21 269.055 381.838 262.115C375.612 261.039 372.218 264.867 376.154 270.067C400.987 303.37 426.996 307.971 439.535 329.689C447.624 343.701 445.501 362.675 427.987 372.787Z" fill="black"/>
</svg>
